<?xml version="1.0" encoding="UTF-8"?>
<svg id="Logo" xmlns="http://www.w3.org/2000/svg" version="1.1" viewBox="0 0 1600 337.01">
  <!-- Generator: Adobe Illustrator 29.1.0, SVG Export Plug-In . SVG Version: 2.1.0 Build 142)  -->
  <defs>
    <style>
      .st0 {
        fill: #fff;
      }
    </style>
  </defs>
  <path class="st0" d="M308.83,217.27c-1.93-6.54-5.96-12.6-11.64-17.51l-16.47-14.23-26.74,23.11,19.76,17.1c.63.54.99,1.33.99,2.16s-.36,1.62-.99,2.16l-61.01,52.73c-29.94,25.88-75.1,25.87-105.04,0l-59.3-51.25c-8.2-7.08-12.9-17.36-12.9-28.19v-69.68c0-10.83,4.7-21.11,12.9-28.19l59.31-51.25c14.48-12.52,33.13-19.41,52.52-19.41s38.04,6.89,52.52,19.41l61.1,52.8c.63.54.99,1.33.99,2.16s-.36,1.62-.99,2.16l-113.62,98.19-47.47-41.02,47.47-41.03,27.75,24.02,26.69-23.07-33.97-29.36c-11.67-10.08-29.27-10.08-40.94,0l-54.06,46.72c-6.6,5.71-10.39,13.98-10.39,22.71s3.79,17.01,10.39,22.71l54.06,46.72c11.67,10.09,29.27,10.09,40.94,0l116.51-100.69c5.68-4.91,9.7-10.96,11.64-17.51,4.08-13.83-.27-28.8-11.08-38.15l-62.2-53.76C214.07,9.28,187.14,0,160.22,0s-53.85,9.28-75.33,27.83l-59.3,51.25C9.72,92.8.62,112.69.62,133.67v69.68c0,20.97,9.1,40.87,24.97,54.59l59.3,51.25c20.77,17.95,47.52,27.83,75.32,27.83s54.56-9.88,75.33-27.83l62.2-53.76c10.82-9.35,15.17-24.33,11.08-38.15Z"/>
  <g>
    <path class="st0" d="M495.71,69.23c50.44,0,87.47,22.81,102.23,60.64l-34.07,17.17c-11-27.1-34.08-43.2-67.89-43.2-42.12,0-73.79,25.76-73.79,64.66s31.66,64.66,73.79,64.66c33.81,0,56.88-16.1,67.89-43.2l34.07,17.17c-14.76,37.83-51.78,60.64-102.23,60.64-65.2,0-113.77-42.13-113.77-99.28s48.56-99.28,113.77-99.28Z"/>
    <path class="st0" d="M736.29,72.18l97.13,192.65h-42.66l-22.27-44.81h-108.94l-22.54,44.81h-42.12l97.13-192.65h44.27ZM676.19,186.48h75.4l-37.56-75.39-37.83,75.39Z"/>
    <path class="st0" d="M859.9,195.34c22,29.52,56.88,38.64,85.32,38.64,32.2,0,55.01-9.66,55.01-25.22,0-18.24-15.83-19.86-70.03-25.76-47.22-5.37-83.45-14.22-83.45-52.32s35.69-61.44,90.42-61.44c42.93,0,81.57,15.29,99.01,38.37l-26.3,25.22c-14.76-19.05-42.12-30.05-74.86-30.05-34.34,0-49.91,11-49.91,23.88,0,13.95,12.88,17.17,61.71,22.81,54.74,6.17,93.37,13.42,93.37,55s-42.13,63.32-96.6,63.32c-45.88,0-91.49-17.71-110.28-44.81l26.57-27.64Z"/>
    <path class="st0" d="M1179,106.26v158.57h-39.71V106.26h-85.06v-34.08h209.82v34.08h-85.05Z"/>
    <path class="st0" d="M1448.13,72.18l97.13,192.65h-42.66l-22.27-44.81h-108.93l-22.54,44.81h-42.13l97.13-192.65h44.27ZM1388.02,186.48h75.4l-37.57-75.39-37.83,75.39Z"/>
    <path class="st0" d="M1600,264.83h-39.44V72.18h39.44v192.65Z"/>
  </g>
</svg>